# Blender v2.79 (sub 0) OBJ File: 'kitchen_layout2.blend'
# www.blender.org
mtllib emitter.mtl
o Cylinder.008_Cylinder.011
v 0.994522 -0.044024 0.104529
v 0.932118 0.044024 0.097970
v 0.951056 -0.044024 0.309017
v 0.891380 0.044024 0.289627
v 0.866025 -0.044024 0.500000
v 0.811684 0.044024 0.468626
v 0.743145 -0.044024 0.669131
v 0.696514 0.044024 0.627144
v 0.587785 -0.044024 0.809017
v 0.550903 0.044024 0.758253
v 0.406737 -0.044024 0.913545
v 0.381215 0.044024 0.856222
v 0.207912 -0.044024 0.978148
v 0.194866 0.044024 0.916771
v -0.000000 -0.044024 1.000000
v -0.000000 0.044024 0.937252
v -0.207912 -0.044024 0.978148
v -0.194866 0.044024 0.916771
v -0.406737 -0.044024 0.913545
v -0.381215 0.044024 0.856222
v -0.587785 -0.044024 0.809017
v -0.550903 0.044024 0.758253
v -0.743145 -0.044024 0.669131
v -0.696514 0.044024 0.627144
v -0.866025 -0.044024 0.500000
v -0.811684 0.044024 0.468626
v -0.951056 -0.044024 0.309017
v -0.891380 0.044024 0.289627
v -0.994522 -0.044024 0.104529
v -0.932118 0.044024 0.097970
vn 0.7980 0.5782 0.1696
vn 0.7745 0.5804 0.2517
vn 0.7053 0.5804 0.4072
vn 0.6052 0.5804 0.5449
vn 0.4787 0.5804 0.6588
vn 0.3312 0.5804 0.7440
vn 0.1693 0.5804 0.7966
vn -0.0000 0.5804 0.8144
vn -0.1693 0.5804 0.7966
vn -0.3312 0.5804 0.7440
vn -0.4787 0.5804 0.6588
vn -0.6052 0.5804 0.5449
vn -0.7053 0.5804 0.4072
vn -0.7745 0.5804 0.2517
vn -0.7980 0.5782 0.1696
usemtl Material.028
s 1
f 1//1 2//1 4//2 3//2
f 3//2 4//2 6//3 5//3
f 5//3 6//3 8//4 7//4
f 7//4 8//4 10//5 9//5
f 9//5 10//5 12//6 11//6
f 11//6 12//6 14//7 13//7
f 13//7 14//7 16//8 15//8
f 15//8 16//8 18//9 17//9
f 17//9 18//9 20//10 19//10
f 19//10 20//10 22//11 21//11
f 21//11 22//11 24//12 23//12
f 23//12 24//12 26//13 25//13
f 25//13 26//13 28//14 27//14
f 27//14 28//14 30//15 29//15
